<svg version="1.2" baseProfile="tiny-ps" xmlns="http://www.w3.org/2000/svg" viewBox="0 0 1501 240" width="1501" height="240"><title>Siemens-logo-svg</title><style>tspan { white-space:pre }.shp0 { fill: #ffffff } </style><g id="Ebene_x0020_1"><path id="Layer" fill-rule="evenodd" class="shp0" d="M1483.26 53.9C1460.11 45.17 1439.5 40.76 1421.46 40.76C1410.77 40.76 1402.26 42.73 1395.86 46.56C1389.46 50.41 1386.2 55.16 1386.2 60.76C1386.2 68.21 1393.42 74.83 1407.97 80.76L1449.98 101.19C1483.95 117.37 1500.81 138.85 1500.81 165.84C1500.81 188.28 1491.87 206.17 1473.83 219.42C1455.92 232.8 1431.81 239.42 1401.8 239.42C1387.95 239.42 1375.51 238.83 1364.47 237.58C1353.42 236.39 1340.72 233.95 1326.64 230.46L1326.64 183.73C1352.46 192.47 1375.98 196.88 1397.15 196.88C1422.41 196.88 1434.98 189.57 1434.98 174.8C1434.98 167.46 1429.83 161.53 1419.38 156.88L1372.71 137.01C1355.5 129.23 1342.7 119.81 1334.32 108.64C1326.08 97.37 1321.89 84.45 1321.89 69.69C1321.89 49.03 1330.59 32.39 1347.81 19.73C1365.16 7.18 1388.18 0.88 1416.81 0.88C1426.11 0.88 1436.82 1.71 1448.7 3.22C1460.67 4.84 1472.18 6.82 1483.26 9.25L1483.26 53.9ZM161.54 53.9C138.38 45.17 117.8 40.76 99.76 40.76C89.05 40.76 80.57 42.73 74.17 46.56C67.77 50.41 64.51 55.16 64.51 60.76C64.51 68.21 71.83 74.83 86.37 80.76L128.39 101.19C162.23 117.37 179.12 138.85 179.12 165.84C179.12 188.28 170.15 206.17 152.24 219.42C134.2 232.8 110.22 239.42 80.11 239.42C66.26 239.42 53.79 238.83 42.74 237.58C31.69 236.39 19.13 233.95 4.95 230.46L4.95 183.73C30.87 192.47 54.38 196.88 75.42 196.88C100.69 196.88 113.25 189.57 113.25 174.8C113.25 167.46 108.14 161.53 97.79 156.88L51.12 137.01C33.77 129.23 20.97 119.81 12.73 108.64C4.35 97.37 0.26 84.45 0.26 69.69C0.26 49.03 8.9 32.39 26.22 19.73C43.43 7.18 66.49 0.88 95.11 0.88C104.51 0.88 115.1 1.71 127.11 3.22C138.98 4.84 150.49 6.82 161.54 9.25L161.54 53.9ZM209.69 5.07L278.12 5.07L278.12 235.24L209.69 235.24L209.69 5.07ZM498.6 5.07L498.6 47.61L396.92 47.61L396.92 98.65L485.11 98.65L485.11 137.01L396.92 137.01L396.92 190.59L500.67 190.59L500.67 235.24L331.06 235.24L331.06 5.07L498.6 5.07ZM818.08 5.07L818.08 235.24L754.19 235.24L754.19 83.43L687.9 237.35L648.46 237.35L584.71 83.43L584.71 235.24L538.5 235.24L538.5 5.07L622.04 5.07L679.07 145.97L738.73 5.07L818.08 5.07ZM1038.46 5.07L1038.46 47.61L937.33 47.61L937.33 98.65L1025.52 98.65L1025.52 137.01L937.33 137.01L937.33 190.59L1040.53 190.59L1040.53 235.24L870.92 235.24L870.92 5.07L1038.46 5.07ZM1278.58 5.07L1278.58 235.24L1206 235.24L1124.54 87.61L1124.54 235.24L1078.36 235.24L1078.36 5.07L1153.07 5.07L1232.42 150.16L1232.42 5.07L1278.58 5.07Z" /></g></svg>