<svg xmlns="http://www.w3.org/2000/svg" xmlns:xlink="http://www.w3.org/1999/xlink" width="500" zoomAndPan="magnify" viewBox="0 0 375 374.999991" height="500" preserveAspectRatio="xMidYMid meet" version="1.0"><defs><g/></defs><g fill="#ffffff" fill-opacity="1"><g transform="translate(6.3306, 253.076854)"><g><path d="M 113.609375 -185.21875 C 108.941406 -197.3125 104.644531 -205.53125 100.71875 -209.875 C 96.789062 -214.226562 93.023438 -217.144531 89.421875 -218.625 L 89.421875 -222.765625 L 138.109375 -222.765625 L 138.109375 -218.625 C 133.441406 -217.144531 131.53125 -214.226562 132.375 -209.875 C 133.226562 -205.53125 136.097656 -197.414062 140.984375 -185.53125 L 158.15625 -143.53125 L 173.4375 -184.890625 C 177.46875 -195.503906 179.164062 -203.515625 178.53125 -208.921875 C 177.894531 -214.328125 174.925781 -217.5625 169.625 -218.625 L 169.625 -222.765625 L 204.625 -222.765625 L 204.625 -218.625 C 200.164062 -217.144531 195.921875 -214.175781 191.890625 -209.71875 C 187.859375 -205.257812 183.617188 -196.984375 179.171875 -184.890625 L 161.34375 -136.203125 L 204.3125 -32.140625 L 259.671875 -184.890625 C 267.097656 -205.046875 265.40625 -216.289062 254.59375 -218.625 L 254.59375 -222.765625 L 290.546875 -222.765625 L 290.546875 -218.625 C 286.085938 -217.144531 281.84375 -214.175781 277.8125 -209.71875 C 273.78125 -205.257812 269.539062 -196.984375 265.09375 -184.890625 L 198.578125 0 L 189.671875 0 L 145.4375 -107.875 L 101.515625 0 L 92.609375 0 L 22.28125 -184.890625 C 17.613281 -197.203125 13.421875 -205.53125 9.703125 -209.875 C 5.992188 -214.226562 2.335938 -217.144531 -1.265625 -218.625 L -1.265625 -222.765625 L 48.046875 -222.765625 L 48.046875 -218.625 C 43.171875 -217.144531 41.050781 -214.226562 41.6875 -209.875 C 42.320312 -205.53125 44.972656 -197.203125 49.640625 -184.890625 L 108.515625 -31.5 L 142.5625 -114.875 Z M 113.609375 -185.21875 "/></g></g></g><g fill="#ffffff" fill-opacity="1"><g transform="translate(164.773398, 356.698481)"><g><path d="M 16.234375 0 L 16.234375 -4.140625 C 21.109375 -5.617188 24.445312 -8.796875 26.25 -13.671875 C 28.050781 -18.554688 28.953125 -27.472656 28.953125 -40.421875 L 28.953125 -182.34375 C 28.953125 -195.5 28.050781 -204.460938 26.25 -209.234375 C 24.445312 -214.015625 21.109375 -217.144531 16.234375 -218.625 L 16.234375 -222.765625 L 67.78125 -222.765625 L 67.78125 -218.625 C 62.90625 -217.144531 59.5625 -214.015625 57.75 -209.234375 C 55.945312 -204.460938 55.046875 -195.5 55.046875 -182.34375 L 55.046875 -101.515625 L 138.4375 -186.796875 C 148.40625 -197.191406 154.179688 -205.09375 155.765625 -210.5 C 157.359375 -215.914062 155.082031 -219.050781 148.9375 -219.90625 L 148.9375 -222.765625 L 193.171875 -222.765625 L 193.171875 -218.625 C 188.078125 -217.144531 182.132812 -214.972656 175.34375 -212.109375 C 168.550781 -209.242188 160.597656 -203.144531 151.484375 -193.8125 L 83.703125 -124.421875 L 91.015625 -124.75 C 102.898438 -125.59375 112.609375 -125.003906 120.140625 -122.984375 C 127.671875 -120.972656 133.925781 -117.316406 138.90625 -112.015625 C 143.894531 -106.710938 148.5625 -99.5 152.90625 -90.375 C 157.257812 -81.25 162.085938 -69.898438 167.390625 -56.328125 C 172.910156 -42.742188 177.472656 -32.1875 181.078125 -24.65625 C 184.679688 -17.125 188.019531 -11.875 191.09375 -8.90625 C 194.175781 -5.9375 197.414062 -4.453125 200.8125 -4.453125 C 201.863281 -4.453125 202.8125 -4.453125 203.65625 -4.453125 C 204.507812 -4.453125 205.363281 -4.5625 206.21875 -4.78125 L 206.21875 -0.640625 C 203.457031 0.210938 200.429688 0.796875 197.140625 1.109375 C 193.859375 1.429688 190.519531 1.59375 187.125 1.59375 C 179.488281 1.59375 173.332031 -0.0507812 168.65625 -3.34375 C 163.988281 -6.632812 159.800781 -12.046875 156.09375 -19.578125 C 152.382812 -27.109375 147.984375 -37.023438 142.890625 -49.328125 C 137.585938 -62.265625 133.078125 -73.238281 129.359375 -82.25 C 125.648438 -91.269531 121.882812 -98.539062 118.0625 -104.0625 C 114.25 -109.582031 109.796875 -113.5625 104.703125 -116 C 99.609375 -118.4375 93.03125 -119.550781 84.96875 -119.34375 L 78.609375 -119.34375 L 55.046875 -95.15625 L 55.046875 -40.421875 C 55.046875 -27.472656 55.945312 -18.554688 57.75 -13.671875 C 59.5625 -8.796875 62.90625 -5.617188 67.78125 -4.140625 L 67.78125 0 Z M 16.234375 0 "/></g></g></g></svg>